<?xml version="1.0" encoding="utf-8"?>
<!-- Generator: Adobe Illustrator 16.0.0, SVG Export Plug-In . SVG Version: 6.00 Build 0)  -->
<!DOCTYPE svg PUBLIC "-//W3C//DTD SVG 1.1//EN" "http://www.w3.org/Graphics/SVG/1.1/DTD/svg11.dtd">
<svg version="1.1" id="Layer_1" xmlns="http://www.w3.org/2000/svg" xmlns:xlink="http://www.w3.org/1999/xlink" x="0px" y="0px"
	 width="624px" height="308px" viewBox="0 0 624 308" enable-background="new 0 0 624 308" xml:space="preserve">
<g>
	<defs>
		<polygon id="SVGID_1_" points="2838.843,361.179 2610.448,385.994 2608.297,364.186 2836.689,339.37 		"/>
	</defs>
	<clipPath id="SVGID_2_">
		<use xlink:href="#SVGID_1_"  overflow="visible"/>
	</clipPath>
	<g clip-path="url(#SVGID_2_)">
		<text transform="matrix(0.9942 -0.108 0.108 0.9942 2622.7598 404.873)" font-family="'Poppins-Bold'" font-size="45.1984">Atlanta</text>
	</g>
</g>
<g>
	<defs>
		<polygon id="SVGID_3_" points="2838.438,490.181 2608.701,509.734 2608.701,383.386 2838.438,383.386 		"/>
	</defs>
	<clipPath id="SVGID_4_">
		<use xlink:href="#SVGID_3_"  overflow="visible"/>
	</clipPath>
	<g clip-path="url(#SVGID_4_)">
		<path fill="#1A171B" d="M2823.093,465.701c0,7.94-6.496,14.437-14.437,14.437h-166.595c-7.94,0-14.437-6.497-14.437-14.437
			v-67.879c0-7.94,6.496-14.437,14.437-14.437h166.595c7.94,0,14.437,6.497,14.437,14.437V465.701z"/>
	</g>
	<g clip-path="url(#SVGID_4_)">
		<text transform="matrix(1 0 0 1 2618.6631 403.4736)" fill="#FFFFFF" font-family="'Poppins-Bold'" font-size="45.1984">Atlanta</text>
	</g>
</g>
<text transform="matrix(1 0 0 1 911.4355 -581.1621)" font-family="'RosewoodStd-Regular'" font-size="72.0091">Atlanta</text>
<text transform="matrix(1 0 0 1 3722.9727 762.8047)" font-family="'Poppins-Bold'" font-size="72.0091">Atlanta</text>
<path d="M4022.262,1746.638l-41.896-0.001l-6.717,19.828h-28.625l40.618-112.261h31.663l40.619,112.262h-28.945L4022.262,1746.638z
	 M4015.225,1725.526l-13.912-41.097l-13.751,41.097H4015.225z"/>
<path d="M4217.044,691.105l1.164,7.835l-16.912,2.506c-3.351,0.498-6.084,0.066-8.2-1.295c-2.117-1.359-3.45-3.896-4.002-7.605
	l-3.566-24.044l-3.674,0.546l-1.14-7.674l3.674-0.546l-1.092-7.349l9.239-1.373l1.092,7.349l6.052-0.899l1.141,7.674l-6.052,0.899
	l3.582,24.152c0.134,0.901,0.447,1.518,0.938,1.849c0.49,0.332,1.239,0.423,2.249,0.273L4217.044,691.105z"/>
<path d="M4210.794,650.61l5.59,36.021l-9.24,1.368l-5.589-36.021L4210.794,650.61z"/>
<path d="M4215.977,655.549c0.823-2.516,2.15-4.552,3.981-6.111c1.83-1.559,3.989-2.524,6.475-2.893
	c2.126-0.314,4.054-0.158,5.786,0.47c1.729,0.627,3.132,1.579,4.205,2.856l-0.633-4.269l9.241-1.369l4.464,30.153l-9.241,1.368
	l-0.632-4.27c-0.692,1.539-1.777,2.859-3.251,3.961c-1.476,1.102-3.275,1.81-5.401,2.125c-2.45,0.362-4.778,0.055-6.984-0.927
	c-2.207-0.979-4.07-2.563-5.59-4.75c-1.521-2.186-2.51-4.827-2.969-7.926C4214.97,660.87,4215.151,658.065,4215.977,655.549z
	 M4235.297,655.505c-1.476-1.144-3.132-1.58-4.971-1.307c-1.836,0.271-3.298,1.16-4.382,2.664s-1.455,3.409-1.114,5.715
	c0.341,2.305,1.252,4.038,2.73,5.2c1.479,1.161,3.138,1.606,4.975,1.334c1.838-0.271,3.297-1.168,4.377-2.691
	c1.083-1.521,1.452-3.436,1.111-5.741C4237.682,658.373,4236.773,656.648,4235.297,655.505z"/>
<path d="M4250.932,680.328c2.446,1.977,3.965,4.963,4.558,8.963l2.607,17.615l-9.186,1.359l-2.424-16.373
	c-0.299-2.017-1.054-3.507-2.265-4.47c-1.21-0.961-2.697-1.312-4.462-1.051c-1.766,0.262-3.088,1.029-3.967,2.299
	c-0.88,1.271-1.17,2.916-0.871,4.935l2.424,16.372l-9.24,1.368l-4.464-30.153l9.24-1.368l0.592,3.999
	c0.739-1.471,1.844-2.711,3.314-3.721c1.47-1.009,3.196-1.66,5.177-1.954C4245.497,677.626,4248.485,678.354,4250.932,680.328z"/>
<path d="M4273.824,696.57l1.16,7.836l-4.701,0.696c-3.351,0.495-6.085,0.063-8.199-1.299c-2.117-1.362-3.448-3.898-3.998-7.609
	l-3.888-26.26l-3.676,0.545l-1.136-7.675l3.676-0.544l-1.088-7.349l9.239-1.368l1.089,7.349l6.052-0.896l1.137,7.674l-6.053,0.896
	l3.904,26.367c0.133,0.901,0.445,1.518,0.936,1.85c0.491,0.332,1.24,0.424,2.25,0.273L4273.824,696.57z"/>
<path d="M4269.304,675.971c0.823-2.515,2.151-4.552,3.982-6.111c1.83-1.559,3.989-2.523,6.474-2.892
	c2.126-0.314,4.054-0.159,5.786,0.469c1.73,0.627,3.132,1.579,4.205,2.857l-0.631-4.271l9.239-1.367l4.464,30.153l-9.24,1.367
	l-0.632-4.268c-0.692,1.537-1.777,2.857-3.252,3.959c-1.476,1.102-3.276,1.811-5.401,2.126c-2.449,0.362-4.777,0.054-6.984-0.927
	c-2.207-0.979-4.07-2.563-5.59-4.75c-1.521-2.186-2.509-4.828-2.968-7.927S4268.479,678.487,4269.304,675.971z M4288.625,675.927
	c-1.476-1.143-3.134-1.578-4.971-1.307s-3.299,1.16-4.382,2.664c-1.084,1.505-1.456,3.41-1.114,5.715
	c0.341,2.306,1.251,4.038,2.73,5.2c1.478,1.162,3.137,1.607,4.975,1.335c1.837-0.272,3.296-1.169,4.377-2.691
	c1.082-1.522,1.452-3.436,1.11-5.742C4291.01,678.796,4290.101,677.071,4288.625,675.927z"/>
<path d="M4146.089,665.811c0.824-2.515,2.151-4.552,3.983-6.111c1.829-1.56,3.988-2.524,6.475-2.892
	c2.125-0.315,4.053-0.159,5.784,0.469c1.73,0.628,3.134,1.579,4.206,2.856l-0.632-4.27l9.24-1.368l4.464,30.153l-9.24,1.368
	l-0.632-4.27c-0.693,1.539-1.777,2.858-3.252,3.961c-1.476,1.103-3.275,1.811-5.4,2.124c-2.45,0.363-4.778,0.055-6.985-0.926
	c-2.207-0.979-4.07-2.562-5.59-4.749c-1.521-2.187-2.51-4.829-2.969-7.927C4145.083,671.132,4145.266,668.326,4146.089,665.811z
	 M4165.41,665.767c-1.476-1.144-3.133-1.58-4.97-1.308s-3.299,1.16-4.382,2.665c-1.085,1.504-1.456,3.409-1.115,5.715
	c0.343,2.305,1.252,4.038,2.73,5.2c1.479,1.161,3.137,1.605,4.975,1.334c1.837-0.271,3.296-1.169,4.378-2.691
	c1.082-1.521,1.452-3.436,1.111-5.74C4167.795,668.635,4166.887,666.91,4165.41,665.767z"/>
<g>
	<path d="M2026.666,610.342v1.654h-6.771v5.25h5.497v1.654h-5.497v7.016h-2.034v-15.574H2026.666z"/>
	<path d="M2039.649,610.342v15.574h-2.033v-15.574H2039.649z"/>
	<path d="M2053.637,624.264h5.452v1.652h-7.486v-15.574h2.034V624.264z"/>
	<path d="M2085.548,610.453v15.463h-2.034v-11.529l-5.14,11.529h-1.43l-5.163-11.553v11.553h-2.034v-15.463h2.19l5.721,12.781
		l5.72-12.781H2085.548z"/>
	<path d="M2099.513,611.996v5.207h5.676v1.674h-5.676v5.363h6.347v1.676h-8.38v-15.598h8.38v1.678H2099.513z"/>
	<path d="M2119.612,625.525c-0.812-0.363-1.449-0.871-1.91-1.52c-0.463-0.648-0.701-1.396-0.716-2.244h2.167
		c0.075,0.729,0.376,1.344,0.906,1.842c0.529,0.498,1.299,0.748,2.313,0.748c0.968,0,1.731-0.242,2.291-0.725
		c0.558-0.484,0.837-1.105,0.837-1.865c0-0.598-0.164-1.08-0.491-1.453c-0.33-0.373-0.738-0.656-1.229-0.85
		c-0.492-0.193-1.155-0.402-1.99-0.625c-1.028-0.27-1.851-0.537-2.469-0.805c-0.619-0.268-1.148-0.689-1.586-1.262
		c-0.44-0.574-0.659-1.346-0.659-2.314c0-0.85,0.215-1.602,0.647-2.258c0.433-0.652,1.04-1.16,1.822-1.52
		c0.781-0.357,1.679-0.535,2.693-0.535c1.458,0,2.655,0.365,3.586,1.096c0.931,0.729,1.456,1.697,1.575,2.904h-2.234
		c-0.075-0.596-0.387-1.121-0.938-1.576c-0.552-0.455-1.281-0.682-2.19-0.682c-0.849,0-1.542,0.221-2.078,0.66
		c-0.536,0.439-0.805,1.053-0.805,1.844c0,0.566,0.161,1.029,0.48,1.385c0.321,0.357,0.716,0.629,1.184,0.816
		c0.47,0.186,1.129,0.398,1.979,0.635c1.027,0.285,1.854,0.564,2.48,0.84c0.625,0.275,1.163,0.699,1.608,1.273
		c0.447,0.574,0.671,1.352,0.671,2.336c0,0.758-0.2,1.475-0.603,2.145c-0.403,0.67-0.999,1.213-1.788,1.631
		c-0.789,0.418-1.72,0.627-2.792,0.627C2121.345,626.074,2120.425,625.891,2119.612,625.525z"/>
</g>
<g>
	<path fill="#FFFFFF" d="M2744.635,458.881v1.105h-4.527v3.512h3.676v1.105h-3.676v4.693h-1.36v-10.417H2744.635z"/>
	<path fill="#FFFFFF" d="M2753.318,458.881v10.417h-1.359v-10.417H2753.318z"/>
	<path fill="#FFFFFF" d="M2762.675,468.192h3.646v1.105h-5.006v-10.417h1.36V468.192z"/>
	<path fill="#FFFFFF" d="M2784.016,458.954v10.343h-1.36v-7.712l-3.437,7.712h-0.957l-3.452-7.727v7.727h-1.36v-10.343h1.466
		l3.825,8.549l3.825-8.549H2784.016z"/>
	<path fill="#FFFFFF" d="M2793.356,459.986v3.483h3.796v1.121h-3.796v3.586h4.245v1.122h-5.604v-10.432h5.604v1.121H2793.356z"/>
	<path fill="#FFFFFF" d="M2806.8,469.035c-0.543-0.243-0.97-0.582-1.277-1.016c-0.31-0.434-0.47-0.934-0.479-1.502h1.45
		c0.05,0.49,0.251,0.899,0.605,1.233c0.354,0.334,0.868,0.501,1.547,0.501c0.647,0,1.158-0.163,1.532-0.486
		c0.373-0.324,0.561-0.739,0.561-1.249c0-0.398-0.109-0.722-0.329-0.97c-0.22-0.25-0.493-0.44-0.821-0.569
		c-0.33-0.129-0.774-0.268-1.331-0.418c-0.688-0.18-1.238-0.359-1.651-0.539c-0.414-0.178-0.769-0.46-1.062-0.844
		c-0.294-0.383-0.44-0.899-0.44-1.546c0-0.569,0.144-1.071,0.433-1.511c0.289-0.438,0.695-0.776,1.219-1.016
		c0.523-0.239,1.122-0.359,1.801-0.359c0.977,0,1.776,0.246,2.399,0.732c0.622,0.489,0.974,1.136,1.054,1.943h-1.496
		c-0.049-0.399-0.258-0.75-0.627-1.054s-0.857-0.456-1.465-0.456c-0.567,0-1.031,0.147-1.39,0.441s-0.538,0.704-0.538,1.233
		c0,0.378,0.106,0.688,0.321,0.927c0.215,0.239,0.479,0.42,0.792,0.546c0.315,0.125,0.755,0.266,1.323,0.425
		c0.688,0.189,1.239,0.376,1.659,0.561c0.417,0.185,0.776,0.469,1.075,0.852c0.299,0.385,0.449,0.905,0.449,1.563
		c0,0.507-0.135,0.986-0.404,1.434c-0.27,0.449-0.668,0.812-1.196,1.091c-0.527,0.279-1.149,0.419-1.867,0.419
		C2807.958,469.402,2807.343,469.28,2806.8,469.035z"/>
</g>
<g>
	<path d="M2404.33,624.879v1.654h-6.77v5.252h5.497v1.652h-5.497v7.016h-2.033v-15.574H2404.33z"/>
	<path d="M2417.313,624.879v15.574h-2.034v-15.574H2417.313z"/>
	<path d="M2431.301,638.801h5.452v1.652h-7.486v-15.574h2.034V638.801z"/>
	<path d="M2463.212,624.99v15.463h-2.034v-11.529l-5.14,11.529h-1.43l-5.163-11.553v11.553h-2.033V624.99h2.19l5.72,12.783
		l5.72-12.783H2463.212z"/>
	<path d="M2477.177,626.533v5.207h5.676v1.676h-5.676v5.363h6.348v1.674h-8.381v-15.598h8.381v1.678H2477.177z"/>
	<path d="M2497.277,640.062c-0.812-0.363-1.449-0.869-1.91-1.52c-0.463-0.648-0.701-1.396-0.716-2.244h2.167
		c0.076,0.729,0.377,1.344,0.906,1.842c0.528,0.5,1.298,0.75,2.313,0.75c0.968,0,1.731-0.244,2.29-0.727
		c0.558-0.484,0.838-1.105,0.838-1.865c0-0.598-0.164-1.08-0.491-1.451c-0.329-0.375-0.738-0.658-1.229-0.852
		c-0.493-0.193-1.156-0.402-1.99-0.625c-1.028-0.27-1.851-0.537-2.469-0.805c-0.619-0.268-1.147-0.689-1.586-1.262
		c-0.44-0.574-0.659-1.344-0.659-2.314c0-0.85,0.215-1.602,0.647-2.256c0.433-0.654,1.04-1.162,1.822-1.52
		c0.782-0.359,1.679-0.537,2.693-0.537c1.459,0,2.655,0.365,3.586,1.096c0.931,0.73,1.457,1.697,1.576,2.904h-2.235
		c-0.075-0.596-0.387-1.121-0.938-1.576c-0.552-0.453-1.282-0.68-2.191-0.68c-0.848,0-1.542,0.219-2.077,0.658
		c-0.536,0.439-0.805,1.055-0.805,1.844c0,0.566,0.16,1.029,0.48,1.385c0.321,0.359,0.716,0.631,1.184,0.816
		c0.47,0.186,1.129,0.398,1.979,0.635c1.027,0.285,1.854,0.564,2.479,0.84c0.625,0.275,1.162,0.701,1.609,1.273
		c0.447,0.574,0.67,1.354,0.67,2.336c0,0.758-0.201,1.475-0.603,2.145c-0.403,0.67-1,1.215-1.789,1.633
		c-0.789,0.416-1.72,0.625-2.792,0.625C2499.009,640.611,2498.089,640.428,2497.277,640.062z"/>
</g>
<g>
	<g>
		<path d="M2180.382,565.111c0.668-0.443,1.217-0.15,1.219,0.65l0.114,33.574c0.002,0.801-0.543,1.098-1.214,0.658l-25.253-16.584
			c-0.67-0.441-0.672-1.164-0.004-1.607L2180.382,565.111z"/>
	</g>
	<rect x="2157.668" y="571.018" fill="#FFFFFF" width="8.338" height="24.4"/>
	<g>
		<path d="M1989.057,590.844h-13.753l-2.205,6.508h-9.396l13.333-36.852h10.394l13.333,36.852h-9.501L1989.057,590.844z
			 M1986.747,583.912l-4.567-13.49l-4.515,13.49H1986.747z"/>
		<path d="M2021.13,589.738v7.613h-4.566c-3.255,0-5.792-0.797-7.612-2.389s-2.729-4.191-2.729-7.795v-11.654h-3.57v-7.453h3.57
			v-7.141h8.976v7.141h5.88v7.453h-5.88v11.758c0,0.877,0.211,1.508,0.631,1.891c0.42,0.385,1.119,0.576,2.1,0.576H2021.13z"/>
		<path d="M2035.093,558.506v38.846h-8.977v-38.846H2035.093z"/>
		<path d="M2041.523,574.727c1.138-2.273,2.686-4.023,4.646-5.25c1.958-1.223,4.147-1.836,6.562-1.836
			c2.063,0,3.875,0.42,5.433,1.26c1.556,0.84,2.755,1.939,3.595,3.307v-4.146h8.978v29.291h-8.978v-4.146
			c-0.874,1.365-2.091,2.467-3.647,3.307c-1.558,0.84-3.369,1.26-5.434,1.26c-2.38,0-4.551-0.621-6.509-1.865
			c-1.96-1.24-3.508-3.008-4.646-5.301c-1.137-2.291-1.707-4.941-1.707-7.953C2039.816,579.643,2040.386,577.002,2041.523,574.727z
			 M2059.895,577.404c-1.242-1.295-2.755-1.943-4.541-1.943c-1.784,0-3.299,0.639-4.54,1.916c-1.244,1.277-1.864,3.037-1.864,5.275
			c0,2.24,0.621,4.016,1.864,5.328c1.241,1.312,2.756,1.971,4.54,1.971c1.786,0,3.299-0.648,4.541-1.945
			c1.243-1.293,1.864-3.061,1.864-5.301C2061.759,580.467,2061.138,578.699,2059.895,577.404z"/>
		<path d="M2103.306,571.078c2.048,2.223,3.071,5.275,3.071,9.162v17.111h-8.923v-15.906c0-1.959-0.508-3.482-1.523-4.566
			c-1.016-1.084-2.379-1.627-4.093-1.627c-1.716,0-3.081,0.543-4.095,1.627c-1.016,1.084-1.522,2.607-1.522,4.566v15.906h-8.977
			v-29.291h8.977v3.885c0.91-1.295,2.135-2.318,3.673-3.07c1.541-0.754,3.272-1.129,5.196-1.129
			C2098.521,567.746,2101.261,568.857,2103.306,571.078z"/>
		<path d="M2128.951,589.738v7.613h-4.568c-3.254,0-5.792-0.797-7.611-2.389c-1.82-1.592-2.729-4.191-2.729-7.795v-11.654h-3.57
			v-7.453h3.57v-7.141h8.977v7.141h5.879v7.453h-5.879v11.758c0,0.877,0.209,1.508,0.63,1.891c0.419,0.385,1.118,0.576,2.1,0.576
			H2128.951z"/>
		<path d="M2133.857,574.727c1.138-2.273,2.685-4.023,4.646-5.25c1.959-1.223,4.148-1.836,6.563-1.836
			c2.064,0,3.875,0.42,5.433,1.26c1.556,0.84,2.755,1.939,3.595,3.307v-4.146h8.977v29.291h-8.977v-4.146
			c-0.875,1.365-2.092,2.467-3.648,3.307c-1.557,0.84-3.368,1.26-5.433,1.26c-2.38,0-4.55-0.621-6.51-1.865
			c-1.96-1.24-3.507-3.008-4.646-5.301c-1.138-2.291-1.706-4.941-1.706-7.953C2132.151,579.643,2132.719,577.002,2133.857,574.727z
			 M2152.229,577.404c-1.242-1.295-2.755-1.943-4.54-1.943c-1.785,0-3.3,0.639-4.541,1.916c-1.244,1.277-1.864,3.037-1.864,5.275
			c0,2.24,0.62,4.016,1.864,5.328c1.241,1.312,2.756,1.971,4.541,1.971c1.785,0,3.298-0.648,4.54-1.943
			c1.243-1.295,1.864-3.062,1.864-5.303C2154.094,580.467,2153.472,578.699,2152.229,577.404z"/>
	</g>
</g>
<g>
	<path fill="#FFFFFF" d="M353.091,191.216v2.592h-10.608v8.227h8.614v2.592h-8.614v10.992h-3.186v-24.402H353.091z"/>
	<path fill="#FFFFFF" d="M373.436,191.216v24.402h-3.188v-24.402H373.436z"/>
	<path fill="#FFFFFF" d="M395.352,213.027h8.543v2.592h-11.729v-24.402h3.186V213.027z"/>
	<path fill="#FFFFFF" d="M445.351,191.388v24.23h-3.186v-18.064l-8.055,18.064h-2.24l-8.088-18.102v18.102h-3.186v-24.23h3.431
		l8.964,20.029l8.964-20.029H445.351z"/>
	<path fill="#FFFFFF" d="M467.233,193.808v8.156h8.893v2.625h-8.893v8.404h9.944v2.625h-13.13v-24.439h13.13v2.629H467.233z"/>
	<path fill="#FFFFFF" d="M498.727,215.007c-1.271-0.57-2.271-1.365-2.993-2.381c-0.725-1.018-1.099-2.189-1.122-3.52h3.397
		c0.116,1.145,0.589,2.107,1.418,2.885c0.828,0.783,2.035,1.176,3.623,1.176c1.517,0,2.715-0.379,3.59-1.135
		c0.875-0.762,1.312-1.732,1.312-2.926c0-0.934-0.256-1.689-0.77-2.273c-0.515-0.586-1.155-1.029-1.925-1.332
		c-0.771-0.303-1.811-0.633-3.117-0.982c-1.611-0.42-2.901-0.842-3.87-1.258c-0.968-0.42-1.796-1.084-2.484-1.98
		s-1.033-2.105-1.033-3.623c0-1.334,0.338-2.51,1.015-3.537c0.676-1.025,1.628-1.818,2.854-2.381c1.226-0.561,2.631-0.84,4.22-0.84
		c2.286,0,4.159,0.572,5.619,1.717c1.46,1.143,2.283,2.66,2.468,4.551h-3.501c-0.118-0.934-0.606-1.76-1.47-2.469
		c-0.865-0.713-2.008-1.068-3.431-1.068c-1.331,0-2.418,0.346-3.256,1.035c-0.841,0.688-1.261,1.648-1.261,2.889
		c0,0.887,0.25,1.609,0.752,2.166c0.502,0.562,1.12,0.988,1.855,1.283c0.736,0.291,1.769,0.621,3.1,0.994
		c1.609,0.447,2.905,0.885,3.887,1.316c0.979,0.432,1.819,1.096,2.52,1.994c0.701,0.896,1.05,2.119,1.05,3.658
		c0,1.189-0.313,2.312-0.944,3.359c-0.632,1.053-1.565,1.904-2.802,2.559c-1.236,0.652-2.695,0.982-4.376,0.982
		C501.439,215.867,500,215.58,498.727,215.007z"/>
</g>
<path fill="#FFFFFF" d="M163.971,157.361h-27.742l-4.448,13.131h-18.954l26.896-74.336h20.966l26.896,74.336h-19.165
	L163.971,157.361z M159.312,143.38l-9.212-27.209l-9.107,27.209H159.312z"/>
<path fill="#FFFFFF" d="M224.856,155.138v15.354h-9.211c-6.566,0-11.686-1.607-15.355-4.82c-3.671-3.209-5.505-8.453-5.505-15.725
	v-23.508h-7.201v-15.033h7.201V97.003h18.108v14.402h16.134v15.033h-16.134v23.719c0,1.768,0.421,3.039,1.269,3.814
	c0.848,0.777,2.26,1.166,4.237,1.166H224.856z"/>
<path fill="#FFFFFF" d="M253.023,92.132v78.359h-18.109V92.132H253.023z"/>
<path fill="#FFFFFF" d="M390.622,117.494c4.13,4.482,6.195,10.641,6.195,18.475v34.523h-18.002v-32.088
	c0-3.951-1.025-7.02-3.069-9.209c-2.049-2.189-4.803-3.283-8.262-3.283c-3.458,0-6.212,1.094-8.26,3.283
	c-2.047,2.189-3.069,5.258-3.069,9.209v32.088h-18.106v-59.086h18.106v7.834c1.835-2.609,4.305-4.676,7.412-6.193
	c3.104-1.518,6.601-2.277,10.483-2.277C380.97,110.769,386.492,113.009,390.622,117.494z"/>
<path fill="#FFFFFF" d="M442.349,155.138v15.354h-9.211c-6.566,0-11.686-1.607-15.354-4.82c-3.674-3.209-5.505-8.453-5.505-15.725
	v-23.508h-9.735v-15.033h9.735V97.003h18.104v14.402h11.858v15.033h-11.858v23.719c0,1.768,0.426,3.039,1.273,3.814
	c0.843,0.777,2.257,1.166,4.232,1.166H442.349z"/>
<path fill="#FFFFFF" d="M452.247,124.853c2.294-4.588,5.418-8.115,9.372-10.592c3.952-2.467,8.364-3.703,13.234-3.703
	c4.165,0,7.817,0.848,10.96,2.543c3.141,1.693,5.559,3.918,7.254,6.668v-8.363h18.104v59.086h-18.104v-8.367
	c-1.766,2.754-4.219,4.977-7.361,6.672c-3.142,1.695-6.796,2.543-10.959,2.543c-4.799,0-9.177-1.252-13.129-3.762
	c-3.954-2.502-7.078-6.068-9.372-10.691c-2.294-4.625-3.439-9.975-3.439-16.043C448.808,134.771,449.953,129.441,452.247,124.853z
	 M489.309,130.251c-2.508-2.611-5.561-3.918-9.159-3.918c-3.601,0-6.655,1.289-9.158,3.865c-2.508,2.58-3.759,6.125-3.759,10.645
	c0,4.518,1.251,8.098,3.759,10.748c2.503,2.645,5.558,3.969,9.158,3.969c3.599,0,6.651-1.307,9.159-3.918
	c2.505-2.609,3.76-6.176,3.76-10.695C493.068,136.429,491.813,132.865,489.309,130.251z"/>
<path fill="#FFFFFF" d="M306.814,111.406v8.363c-1.695-2.75-4.113-4.975-7.253-6.668c-3.143-1.695-6.795-2.543-10.96-2.543
	c-4.871,0-9.285,1.236-13.236,3.703c-3.955,2.477-7.078,6.004-9.372,10.592c-2.295,4.588-3.441,9.918-3.441,15.99
	c0,6.068,1.146,11.418,3.441,16.043c2.294,4.623,5.417,8.189,9.372,10.691c3.951,2.51,8.329,3.762,13.13,3.762
	c4.165,0,7.818-0.848,10.961-2.543c3.138-1.695,5.594-3.918,7.358-6.672v8.367h18.107v-59.086H306.814z M299.888,143.025
	l-14.48,14.473c-1.145,1.143-2.081,0.754-2.08-0.863l0.003-31.381c0-1.617,0.937-2.004,2.081-0.861l14.478,14.475
	C301.032,140.011,301.032,141.882,299.888,143.025z"/>
<g>
	<path d="M2286.828,604.316h-17.707l-2.837,8.381h-12.098l17.167-47.441h13.38l17.165,47.441h-12.232L2286.828,604.316z
		 M2283.854,595.396l-5.879-17.367l-5.813,17.367H2283.854z"/>
	<path d="M2328.119,602.898v9.799h-5.879c-4.19,0-7.457-1.025-9.799-3.074c-2.343-2.051-3.514-5.395-3.514-10.037v-15h-4.595v-9.6
		h4.595v-9.189h11.555v9.189h7.57v9.6h-7.57v15.137c0,1.127,0.271,1.938,0.812,2.432c0.541,0.496,1.44,0.744,2.703,0.744H2328.119z"
		/>
	<path d="M2346.094,562.688v50.01h-11.556v-50.01H2346.094z"/>
	<path d="M2428.282,578.873c2.636,2.861,3.954,6.793,3.954,11.793v22.031h-11.487v-20.477c0-2.521-0.654-4.482-1.962-5.881
		c-1.307-1.395-3.062-2.094-5.27-2.094c-2.209,0-3.966,0.699-5.271,2.094c-1.307,1.398-1.959,3.359-1.959,5.881v20.477h-11.557
		v-37.711h11.557v5.002c1.17-1.666,2.748-2.982,4.729-3.953c1.983-0.969,4.212-1.453,6.69-1.453
		C2422.121,574.582,2425.647,576.014,2428.282,578.873z"/>
	<path d="M2461.295,602.898v9.799h-5.879c-4.19,0-7.457-1.025-9.8-3.074c-2.342-2.051-3.514-5.395-3.514-10.037v-15h-4.595v-9.6
		h4.595v-9.189h11.557v9.189h7.568v9.6h-7.568v15.137c0,1.127,0.269,1.938,0.81,2.432c0.541,0.496,1.441,0.744,2.704,0.744H2461.295
		z"/>
	<path d="M2467.611,583.57c1.464-2.928,3.457-5.18,5.981-6.758c2.523-1.576,5.34-2.365,8.449-2.365c2.658,0,4.989,0.539,6.994,1.621
		c2.004,1.082,3.547,2.5,4.628,4.258v-5.34h11.557v37.711h-11.557v-5.338c-1.125,1.758-2.692,3.176-4.695,4.256
		c-2.006,1.082-4.337,1.623-6.996,1.623c-3.064,0-5.857-0.799-8.38-2.4c-2.524-1.598-4.517-3.873-5.981-6.824
		c-1.464-2.949-2.195-6.363-2.195-10.238S2466.147,586.5,2467.611,583.57z M2491.264,587.018c-1.598-1.666-3.547-2.5-5.845-2.5
		c-2.296,0-4.247,0.822-5.845,2.467c-1.601,1.645-2.399,3.908-2.399,6.791s0.799,5.168,2.399,6.859
		c1.598,1.689,3.548,2.535,5.845,2.535c2.298,0,4.247-0.834,5.845-2.502c1.601-1.666,2.399-3.941,2.399-6.824
		C2493.664,590.959,2492.865,588.686,2491.264,587.018z"/>
</g>
<g>
	<path d="M2359.021,614.119c-0.668,0.443-1.217,0.15-1.219-0.652l-0.135-39.242c-0.002-0.801,0.543-1.098,1.214-0.658l29.554,19.408
		c0.67,0.439,0.672,1.162,0.004,1.605L2359.021,614.119z"/>
</g>
<text transform="matrix(1 0 0 1 4152.3223 741.8564)" font-family="'Poppins-Regular'" font-size="24.256" letter-spacing="5">filmes</text>
<g>
	<polygon points="4151.895,628.726 4139.321,633.365 4133.03,616.313 4152.322,609.194 	"/>
	<polygon points="4165.193,623.818 4157.691,626.587 4158.119,607.056 4165.622,604.287 	"/>
	<polygon points="4178.493,618.911 4170.991,621.679 4171.419,602.147 4178.921,599.38 	"/>
	<polygon points="4191.793,614.004 4184.29,616.771 4184.719,597.241 4192.22,594.473 	"/>
	<polygon points="4205.093,609.096 4197.59,611.864 4198.018,592.333 4205.521,589.565 	"/>
	<polygon points="4218.392,604.188 4210.89,606.957 4211.317,587.426 4218.82,584.658 	"/>
	<polygon points="4231.691,599.281 4224.189,602.049 4224.617,582.519 4232.119,579.749 	"/>
	<polygon points="4244.991,594.374 4237.489,597.142 4237.917,577.611 4245.419,574.842 	"/>
	<polygon points="4258.291,589.466 4250.788,592.234 4251.216,572.703 4258.719,569.935 	"/>
	<polygon points="4281.67,580.84 4264.088,587.327 4264.516,567.796 4275.378,563.788 	"/>
</g>
<g>
	<polygon points="4278.639,627.407 4291.839,625.094 4288.7,607.191 4268.444,610.742 	"/>
	<polygon points="4264.676,629.856 4272.553,628.475 4262.358,611.809 4254.481,613.19 	"/>
	<polygon points="4250.713,632.304 4258.589,630.923 4248.396,614.257 4240.519,615.638 	"/>
	<polygon points="4236.749,634.751 4244.626,633.371 4234.433,616.706 4226.556,618.086 	"/>
	<polygon points="4222.786,637.199 4230.663,635.818 4220.469,619.152 4212.593,620.534 	"/>
	<polygon points="4208.823,639.647 4216.7,638.267 4206.506,621.601 4198.63,622.981 	"/>
	<polygon points="4194.859,642.096 4202.737,640.714 4192.543,624.048 4184.667,625.43 	"/>
	<polygon points="4180.896,644.543 4188.773,643.163 4178.58,626.496 4170.703,627.878 	"/>
	<polygon points="4166.933,646.991 4174.811,645.609 4164.616,628.944 4156.74,630.325 	"/>
	<polygon points="4142.388,651.294 4160.848,648.058 4150.653,631.393 4139.249,633.392 	"/>
</g>
<g>
	<path d="M4012.897,1316.481v8.111h-4.866c-3.468,0-6.172-0.849-8.11-2.545c-1.939-1.696-2.908-4.465-2.908-8.307v-12.417h-3.805
		v-7.943h3.805v-7.606h9.563v7.606h6.266v7.943h-6.266v12.528c0,0.934,0.225,1.604,0.673,2.014c0.447,0.411,1.191,0.615,2.236,0.615
		H4012.897z"/>
	<path d="M4027.775,1283.201v41.392h-9.565v-41.392H4027.775z"/>
	<path d="M4034.627,1300.484c1.212-2.423,2.861-4.287,4.95-5.593c2.087-1.305,4.419-1.958,6.992-1.958
		c2.199,0,4.129,0.447,5.789,1.343c1.658,0.895,2.936,2.068,3.831,3.523v-4.419h9.565v31.212h-9.565v-4.419
		c-0.932,1.454-2.229,2.628-3.887,3.523c-1.66,0.896-3.59,1.343-5.79,1.343c-2.536,0-4.849-0.662-6.936-1.986
		c-2.089-1.322-3.738-3.206-4.95-5.648s-1.818-5.267-1.818-8.475C4032.809,1305.724,4033.415,1302.909,4034.627,1300.484z
		 M4054.203,1303.338c-1.323-1.38-2.936-2.069-4.838-2.069c-1.901,0-3.516,0.68-4.838,2.041c-1.325,1.361-1.986,3.235-1.986,5.621
		c0,2.387,0.661,4.279,1.986,5.678c1.322,1.397,2.937,2.098,4.838,2.098c1.902,0,3.515-0.689,4.838-2.07
		c1.324-1.379,1.986-3.262,1.986-5.648S4055.527,1304.718,4054.203,1303.338z"/>
	<path d="M4100.46,1296.597c2.182,2.369,3.272,5.622,3.272,9.762v18.234h-9.508v-16.948c0-2.088-0.541-3.711-1.623-4.866
		s-2.535-1.734-4.361-1.734c-1.829,0-3.283,0.579-4.363,1.734c-1.082,1.155-1.622,2.778-1.622,4.866v16.948h-9.565v-31.212h9.565
		v4.14c0.97-1.379,2.274-2.471,3.914-3.271c1.642-0.803,3.486-1.203,5.537-1.203
		C4095.361,1293.046,4098.28,1294.23,4100.46,1296.597z"/>
	<path d="M4127.785,1316.481v8.111h-4.867c-3.468,0-6.172-0.849-8.11-2.545c-1.939-1.696-2.908-4.465-2.908-8.307v-12.417h-3.804
		v-7.943h3.804v-7.606h9.565v7.606h6.264v7.943h-6.264v12.528c0,0.934,0.223,1.604,0.671,2.014c0.447,0.411,1.191,0.615,2.237,0.615
		H4127.785z"/>
	<path d="M4133.013,1300.484c1.213-2.423,2.861-4.287,4.95-5.593c2.088-1.305,4.42-1.958,6.993-1.958
		c2.199,0,4.129,0.447,5.789,1.343c1.658,0.895,2.936,2.068,3.831,3.523v-4.419h9.565v31.212h-9.565v-4.419
		c-0.932,1.454-2.229,2.628-3.888,3.523c-1.659,0.896-3.589,1.343-5.789,1.343c-2.536,0-4.849-0.662-6.937-1.986
		c-2.089-1.322-3.737-3.206-4.95-5.648c-1.212-2.442-1.817-5.267-1.817-8.475C4131.195,1305.724,4131.801,1302.91,4133.013,1300.484
		z M4152.59,1303.338c-1.323-1.38-2.936-2.069-4.838-2.069c-1.901,0-3.516,0.68-4.838,2.041c-1.325,1.361-1.986,3.235-1.986,5.621
		c0,2.387,0.661,4.279,1.986,5.678c1.322,1.398,2.937,2.098,4.838,2.098c1.902,0,3.515-0.689,4.838-2.069
		c1.324-1.38,1.986-3.263,1.986-5.649S4153.914,1304.718,4152.59,1303.338z"/>
</g>
<path d="M3978.722,1317.657h-14.654l-2.35,6.936h-10.012l14.207-39.267h11.074l14.207,39.267h-10.123L3978.722,1317.657z
	 M4155.723,1293.381l-191.487,9.732l191.487,19.963V1293.381z"/>
<rect x="2650.454" y="541.129" fill="#1A171B" width="145.817" height="143.33"/>
<polygon fill="#FFFFFF" points="2650.454,670.375 2656.649,670.375 2656.649,637.867 2671.743,637.867 2671.743,661.473 
	2676.924,661.473 2676.924,625.482 2682.587,603.037 2689.695,624.709 2689.695,644.059 2696.273,644.059 2696.273,632.555 
	2715.623,632.555 2715.623,662.633 2717.542,662.633 2717.542,645.605 2733.338,645.605 2733.338,662.246 2731.935,662.246 
	2731.935,631.287 2740.835,631.287 2740.835,645.219 2744.317,645.219 2744.317,661.473 2747.8,661.473 2747.8,625.482 
	2753.219,625.482 2753.219,606.52 2759.024,606.52 2759.024,625.869 2769.666,625.869 2769.666,661.084 2801.715,661.084 
	2799.985,696.301 2662.455,696.301 2625.304,696.301 2625.304,676.178 "/>
<rect x="1950.123" y="2290.005" fill="#FFFFFF" width="41.886" height="30.069"/>
<rect x="1950.123" y="2323.61" fill="#FFFFFF" width="41.886" height="30.069"/>
<rect x="1950.123" y="2357.215" fill="#FFFFFF" width="41.886" height="30.07"/>
<rect x="1950.123" y="2390.82" fill="#FFFFFF" width="41.886" height="30.07"/>
<rect x="1950.123" y="2424.426" fill="#FFFFFF" width="41.886" height="30.069"/>
<g>
	<rect x="2773.612" y="613.683" fill="#FFFFFF" width="14.907" height="15.389"/>
	<rect x="2773.612" y="634.833" fill="#FFFFFF" width="14.907" height="15.389"/>
	<rect x="2773.612" y="655.983" fill="#FFFFFF" width="14.907" height="15.389"/>
	<rect x="2773.612" y="592.535" fill="#FFFFFF" width="14.907" height="15.387"/>
	<rect x="2773.612" y="571.387" fill="#FFFFFF" width="14.907" height="15.387"/>
	<rect x="2773.612" y="550.238" fill="#FFFFFF" width="14.907" height="15.387"/>
</g>
<g>
	<rect x="2656.761" y="613.683" fill="#FFFFFF" width="14.907" height="15.389"/>
	<rect x="2656.761" y="634.833" fill="#FFFFFF" width="14.907" height="15.389"/>
	<rect x="2656.761" y="655.983" fill="#FFFFFF" width="14.907" height="15.389"/>
	<rect x="2656.761" y="592.535" fill="#FFFFFF" width="14.907" height="15.387"/>
	<rect x="2656.761" y="571.387" fill="#FFFFFF" width="14.907" height="15.387"/>
	<rect x="2656.761" y="550.238" fill="#FFFFFF" width="14.907" height="15.387"/>
</g>
<text transform="matrix(1 0 0 1 2650.4541 693.7852)" font-family="'Poppins-Regular'" font-size="18.0631" letter-spacing="6">atlanta</text>
<text transform="matrix(1 0 0 1 2650.4541 712.0918)" font-family="'Poppins-Regular'" font-size="18.0631" letter-spacing="6">filmes</text>
<g>
	<path d="M928.899-551.167c-1.005,0.972-2.54,1.459-4.602,1.459h-3.397v7.378h-2.308v-17.674h5.705c1.995,0,3.512,0.482,4.551,1.445
		c1.04,0.963,1.559,2.206,1.559,3.728C930.407-553.361,929.904-552.139,928.899-551.167z M927.137-552.449
		c0.609-0.558,0.913-1.351,0.913-2.383c0-2.181-1.251-3.271-3.753-3.271h-3.397v6.49h3.397
		C925.582-551.612,926.528-551.89,927.137-552.449z"/>
	<path d="M945.622-542.331l-4.209-7.228h-2.789v7.228h-2.308v-17.674h5.705c1.335,0,2.464,0.229,3.386,0.686
		c0.921,0.456,1.61,1.072,2.066,1.85c0.457,0.778,0.685,1.666,0.685,2.663c0,1.217-0.351,2.291-1.053,3.221
		c-0.702,0.929-1.754,1.546-3.156,1.851l4.437,7.404H945.622z M938.623-551.408h3.397c1.251,0,2.189-0.309,2.814-0.926
		c0.626-0.617,0.938-1.442,0.938-2.473c0-1.048-0.309-1.859-0.925-2.435c-0.617-0.573-1.56-0.861-2.828-0.861h-3.397V-551.408z"/>
	<path d="M958.299-543.307c-1.353-0.77-2.421-1.843-3.208-3.22c-0.786-1.378-1.179-2.93-1.179-4.653
		c0-1.725,0.393-3.274,1.179-4.652c0.787-1.379,1.855-2.451,3.208-3.22c1.352-0.77,2.848-1.154,4.488-1.154
		c1.656,0,3.161,0.385,4.513,1.154c1.353,0.769,2.417,1.837,3.195,3.206c0.777,1.369,1.167,2.925,1.167,4.666
		c0,1.74-0.389,3.295-1.167,4.665c-0.778,1.369-1.843,2.438-3.195,3.208c-1.352,0.77-2.857,1.154-4.513,1.154
		C961.147-542.153,959.651-542.538,958.299-543.307z M966.122-545.019c0.989-0.574,1.766-1.394,2.333-2.459
		c0.566-1.064,0.849-2.298,0.849-3.702c0-1.42-0.283-2.658-0.849-3.714c-0.567-1.058-1.34-1.874-2.32-2.448
		c-0.981-0.574-2.097-0.86-3.347-0.86c-1.251,0-2.367,0.286-3.347,0.86c-0.981,0.574-1.754,1.391-2.321,2.448
		c-0.566,1.056-0.849,2.294-0.849,3.714c0,1.404,0.283,2.638,0.849,3.702c0.566,1.065,1.344,1.885,2.333,2.459
		c0.989,0.574,2.101,0.862,3.334,0.862C964.021-544.157,965.133-544.445,966.122-545.019z"/>
	<path d="M988.258-558.925c1.41,0.718,2.494,1.745,3.245,3.079c0.751,1.336,1.129,2.907,1.129,4.717s-0.378,3.376-1.129,4.703
		c-0.751,1.328-1.834,2.342-3.245,3.043c-1.413,0.702-3.081,1.053-5.008,1.053h-5.502v-17.674h5.502
		C985.177-560.004,986.845-559.645,988.258-558.925z M988.474-546.045c1.199-1.208,1.799-2.903,1.799-5.084
		c0-2.198-0.604-3.913-1.812-5.147c-1.208-1.233-2.946-1.852-5.21-1.852h-3.195v13.896h3.195
		C985.532-544.233,987.272-544.836,988.474-546.045z"/>
	<path d="M1000.973-560.004v11.183c0,1.572,0.384,2.738,1.152,3.499c0.771,0.761,1.839,1.14,3.208,1.14
		c1.352,0,2.414-0.379,3.184-1.14c0.768-0.761,1.152-1.927,1.152-3.499v-11.183h2.309v11.156c0,1.472-0.295,2.71-0.889,3.715
		c-0.591,1.008-1.389,1.755-2.395,2.244c-1.005,0.491-2.134,0.736-3.385,0.736c-1.251,0-2.38-0.245-3.385-0.736
		c-1.006-0.489-1.8-1.236-2.384-2.244c-0.582-1.005-0.875-2.243-0.875-3.715v-11.156H1000.973z"/>
	<path d="M1029.753-560.004v1.876h-4.817v15.798h-2.31v-15.798h-4.841v-1.876H1029.753z"/>
	<path d="M1039.158-543.307c-1.352-0.77-2.421-1.843-3.207-3.22c-0.785-1.378-1.178-2.93-1.178-4.653
		c0-1.725,0.393-3.274,1.178-4.652c0.786-1.379,1.854-2.451,3.207-3.22c1.352-0.77,2.849-1.154,4.49-1.154
		c1.654,0,3.16,0.385,4.513,1.154c1.352,0.769,2.416,1.837,3.196,3.206c0.775,1.369,1.166,2.925,1.166,4.666
		c0,1.74-0.391,3.295-1.166,4.665c-0.78,1.369-1.844,2.438-3.196,3.208c-1.353,0.77-2.858,1.154-4.513,1.154
		C1042.007-542.153,1040.51-542.538,1039.158-543.307z M1046.98-545.019c0.99-0.574,1.767-1.394,2.334-2.459
		c0.566-1.064,0.848-2.298,0.848-3.702c0-1.42-0.281-2.658-0.848-3.714c-0.567-1.058-1.34-1.874-2.32-2.448
		c-0.982-0.574-2.096-0.86-3.346-0.86c-1.252,0-2.368,0.286-3.348,0.86c-0.981,0.574-1.754,1.391-2.32,2.448
		c-0.568,1.056-0.85,2.294-0.85,3.714c0,1.404,0.282,2.638,0.85,3.702c0.566,1.065,1.344,1.885,2.332,2.459
		c0.99,0.574,2.1,0.862,3.336,0.862C1044.882-544.157,1045.992-544.445,1046.98-545.019z"/>
	<path d="M1067.913-542.331l-4.208-7.228h-2.791v7.228h-2.307v-17.674h5.705c1.337,0,2.465,0.229,3.387,0.686
		c0.92,0.456,1.608,1.072,2.067,1.85c0.456,0.778,0.684,1.666,0.684,2.663c0,1.217-0.351,2.291-1.051,3.221
		c-0.703,0.929-1.755,1.546-3.16,1.851l4.439,7.404H1067.913z M1060.914-551.408h3.397c1.252,0,2.19-0.309,2.817-0.926
		c0.624-0.617,0.938-1.442,0.938-2.473c0-1.048-0.31-1.859-0.927-2.435c-0.616-0.573-1.559-0.861-2.828-0.861h-3.397V-551.408z"/>
	<path d="M1087.514-546.261h-7.708l-1.419,3.931h-2.434l6.388-17.571h2.663l6.363,17.571h-2.433L1087.514-546.261z
		 M1086.853-548.138l-3.192-8.925l-3.196,8.925H1086.853z"/>
</g>
<path d="M929.301-533.265c1.414,0.718,2.493,1.745,3.247,3.08c0.752,1.335,1.127,2.906,1.127,4.716s-0.375,3.377-1.127,4.704
	c-0.754,1.328-1.833,2.341-3.247,3.043c-1.41,0.701-3.079,1.052-5.005,1.052h-5.502v-17.673h5.502
	C926.223-534.343,927.891-533.985,929.301-533.265z M929.518-520.385c1.199-1.207,1.799-2.903,1.799-5.084
	c0-2.198-0.602-3.912-1.813-5.147c-1.208-1.233-2.944-1.851-5.208-1.851H921.1v13.896h3.196
	C926.576-518.572,928.316-519.176,929.518-520.385z"/>
<path d="M942.067-532.467v5.908h6.443v1.902h-6.443v6.085h7.202v1.901h-9.508v-17.698h9.508v1.901H942.067z"/>
<path d="M975.614-534.343v1.876h-7.683v5.959h6.237v1.876h-6.237v7.962h-2.307v-17.673H975.614z"/>
<path d="M983.753-534.343v17.673h-2.306v-17.673H983.753z"/>
<path d="M993.034-518.546h6.188v1.876h-8.494v-17.673h2.306V-518.546z"/>
<path d="M1022.65-534.217v17.547h-2.309v-13.084l-5.831,13.084h-1.621l-5.858-13.109v13.109h-2.306v-17.547h2.484l6.491,14.504
	l6.489-14.504H1022.65z"/>
<path d="M1031.905-532.467v5.908h6.439v1.902h-6.439v6.085h7.203v1.901h-9.509v-17.698h9.509v1.901H1031.905z"/>
<path d="M1048.121-517.114c-0.922-0.414-1.645-0.989-2.168-1.725c-0.524-0.735-0.794-1.585-0.811-2.548h2.458
	c0.085,0.828,0.429,1.524,1.029,2.091c0.597,0.568,1.474,0.85,2.624,0.85c1.097,0,1.967-0.274,2.6-0.823
	c0.633-0.55,0.948-1.256,0.948-2.117c0-0.676-0.185-1.227-0.555-1.648c-0.372-0.422-0.839-0.744-1.394-0.964
	c-0.559-0.219-1.311-0.456-2.258-0.71c-1.167-0.303-2.103-0.608-2.802-0.912c-0.701-0.305-1.301-0.782-1.801-1.433
	c-0.5-0.65-0.749-1.525-0.749-2.625c0-0.963,0.244-1.817,0.737-2.561c0.491-0.743,1.178-1.319,2.067-1.725
	c0.886-0.405,1.905-0.609,3.055-0.609c1.657,0,3.013,0.416,4.069,1.243c1.057,0.829,1.652,1.927,1.787,3.297h-2.536
	c-0.083-0.677-0.438-1.271-1.064-1.788c-0.625-0.514-1.453-0.772-2.484-0.772c-0.964,0-1.751,0.249-2.358,0.748
	c-0.609,0.497-0.915,1.195-0.915,2.091c0,0.643,0.183,1.166,0.547,1.572c0.363,0.406,0.811,0.714,1.342,0.925
	c0.533,0.212,1.282,0.453,2.244,0.723c1.166,0.321,2.105,0.64,2.813,0.951c0.713,0.313,1.32,0.795,1.827,1.445
	c0.507,0.651,0.761,1.534,0.761,2.649c0,0.863-0.228,1.674-0.683,2.436c-0.459,0.761-1.133,1.377-2.031,1.85
	c-0.896,0.475-1.953,0.711-3.169,0.711C1050.085-516.493,1049.042-516.7,1048.121-517.114z"/>
<line fill="none" stroke="#FFFFFF" stroke-miterlimit="10" x1="2620.149" y1="443.759" x2="2832.296" y2="443.759"/>
<g>
	<g>
		<path d="M216.537,605.469v3.43H202.5v10.885h11.397v3.43H202.5v14.547h-4.217v-32.291H216.537z"/>
		<path d="M243.456,605.469v32.291h-4.215v-32.291H243.456z"/>
		<path d="M272.458,634.334h11.304v3.426h-15.521v-32.291h4.217V634.334z"/>
		<path d="M338.619,605.699v32.061h-4.218v-23.904l-10.656,23.904h-2.964l-10.704-23.953v23.953h-4.217v-32.061h4.542l11.86,26.5
			l11.86-26.5H338.619z"/>
		<path d="M367.572,608.898v10.797h11.77v3.471h-11.77v11.119h13.16v3.475h-17.375v-32.34h17.375v3.479H367.572z"/>
		<path d="M409.246,636.949c-1.683-0.752-3.004-1.805-3.96-3.15c-0.96-1.344-1.453-2.895-1.484-4.652h4.494
			c0.156,1.51,0.78,2.785,1.878,3.818c1.097,1.033,2.693,1.551,4.796,1.551c2.007,0,3.59-0.502,4.749-1.502
			c1.157-1.004,1.736-2.293,1.736-3.867c0-1.24-0.341-2.24-1.018-3.014c-0.684-0.773-1.531-1.359-2.549-1.762
			c-1.021-0.4-2.396-0.834-4.126-1.295c-2.132-0.559-3.838-1.113-5.118-1.668c-1.283-0.555-2.38-1.43-3.289-2.617
			c-0.912-1.189-1.367-2.789-1.367-4.797c0-1.762,0.446-3.322,1.342-4.682c0.896-1.354,2.155-2.406,3.778-3.15
			c1.619-0.742,3.48-1.109,5.583-1.109c3.023,0,5.504,0.756,7.435,2.271c1.931,1.51,3.019,3.518,3.266,6.021h-4.632
			c-0.156-1.236-0.804-2.324-1.946-3.268c-1.144-0.943-2.656-1.414-4.54-1.414c-1.761,0-3.196,0.457-4.309,1.369
			c-1.112,0.91-1.669,2.182-1.669,3.822c0,1.174,0.333,2.135,0.996,2.871c0.665,0.74,1.484,1.305,2.455,1.693
			c0.975,0.385,2.341,0.826,4.103,1.314c2.13,0.592,3.845,1.172,5.142,1.742c1.296,0.57,2.41,1.449,3.335,2.641
			c0.927,1.189,1.391,2.803,1.391,4.844c0,1.57-0.415,3.057-1.25,4.445c-0.836,1.389-2.07,2.516-3.707,3.381
			c-1.636,0.867-3.567,1.301-5.79,1.301C412.838,638.088,410.931,637.707,409.246,636.949z"/>
	</g>
	<path d="M537.771,513.041c-0.006-1.662-1.144-2.27-2.529-1.35l-29.807,19.791v32.793l30.056,19.736
		c1.39,0.912,2.521,0.299,2.517-1.363L537.771,513.041z"/>
	<g>
		<path d="M138.561,565.043h-28.516l-4.57,13.492H85.993l27.644-76.404h21.55l27.644,76.404h-19.698L138.561,565.043z
			 M133.772,550.672l-9.469-27.971l-9.36,27.971H133.772z"/>
		<path d="M205.06,562.752v15.783h-9.468c-6.749,0-12.01-1.65-15.782-4.951s-5.659-8.691-5.659-16.162V533.26h-7.401v-15.453h7.401
			v-14.805h18.609v14.805h12.192v15.453H192.76v24.377c0,1.818,0.438,3.127,1.308,3.92c0.871,0.797,2.321,1.195,4.354,1.195H205.06z
			"/>
		<path d="M234.01,497.996v80.539h-18.612v-80.539H234.01z"/>
		<path d="M247.341,531.627c2.358-4.713,5.568-8.342,9.633-10.885c4.06-2.535,8.598-3.807,13.604-3.807
			c4.278,0,8.034,0.871,11.265,2.611c3.227,1.742,5.712,4.021,7.453,6.855v-8.596h18.613v60.729h-18.613v-8.596
			c-1.812,2.83-4.336,5.113-7.562,6.855c-3.229,1.74-6.983,2.611-11.266,2.611c-4.935,0-9.435-1.287-13.494-3.867
			c-4.064-2.57-7.274-6.236-9.633-10.99c-2.358-4.75-3.538-10.244-3.538-16.488C243.803,541.82,244.982,536.344,247.341,531.627z
			 M285.432,537.18c-2.574-2.686-5.711-4.029-9.414-4.029c-3.699,0-6.84,1.324-9.412,3.971c-2.579,2.648-3.865,6.299-3.865,10.939
			c0,4.645,1.286,8.324,3.865,11.047c2.572,2.721,5.713,4.086,9.412,4.086c3.703,0,6.84-1.346,9.414-4.033
			c2.577-2.682,3.864-6.346,3.864-10.99C289.296,543.527,288.009,539.863,285.432,537.18z"/>
		<path d="M375.438,524.062c4.246,4.607,6.368,10.938,6.368,18.996v35.477h-18.5v-32.979c0-4.061-1.053-7.221-3.158-9.467
			c-2.105-2.248-4.933-3.373-8.486-3.373c-3.559,0-6.388,1.125-8.489,3.373c-2.106,2.246-3.157,5.406-3.157,9.467v32.979h-18.612
			v-60.729h18.612v8.055c1.888-2.686,4.427-4.807,7.616-6.367c3.194-1.562,6.784-2.34,10.773-2.34
			C365.518,517.154,371.198,519.459,375.438,524.062z"/>
		<path d="M428.607,562.752v15.783h-9.471c-6.748,0-12.009-1.65-15.781-4.951c-3.773-3.301-5.658-8.691-5.658-16.162V533.26h-7.401
			v-15.453h7.401v-14.805h18.611v14.805h12.189v15.453h-12.189v24.377c0,1.818,0.435,3.127,1.307,3.92
			c0.869,0.797,2.317,1.195,4.353,1.195H428.607z"/>
		<path d="M438.779,531.627c2.36-4.713,5.567-8.342,9.632-10.885c4.062-2.535,8.6-3.807,13.607-3.807
			c4.279,0,8.034,0.871,11.265,2.611c3.227,1.742,5.712,4.021,7.454,6.855v-8.596h18.612v60.729h-18.612v-8.596
			c-1.813,2.83-4.338,5.113-7.564,6.855c-3.229,1.74-6.983,2.611-11.265,2.611c-4.935,0-9.435-1.287-13.497-3.867
			c-4.064-2.57-7.271-6.236-9.632-10.99c-2.358-4.75-3.537-10.244-3.537-16.488C435.242,541.82,436.421,536.344,438.779,531.627z
			 M476.872,537.18c-2.574-2.686-5.712-4.029-9.413-4.029c-3.7,0-6.842,1.324-9.414,3.971c-2.578,2.648-3.864,6.299-3.864,10.939
			c0,4.645,1.286,8.324,3.864,11.047c2.572,2.721,5.714,4.086,9.414,4.086c3.701,0,6.839-1.346,9.413-4.029
			c2.576-2.686,3.865-6.35,3.865-10.994C480.737,543.527,479.448,539.863,476.872,537.18z"/>
	</g>
</g>
<g>
	<g>
		<path d="M356.188,1050.769v2.969h-12.147v9.424h9.864v2.965h-9.864v12.589h-3.648v-27.946H356.188z"/>
		<path d="M379.487,1050.769v27.946h-3.65v-27.946H379.487z"/>
		<path d="M404.586,1075.75h9.783v2.965h-13.434v-27.946h3.65V1075.75z"/>
		<path d="M461.847,1050.969v27.746h-3.65v-20.688l-9.222,20.688h-2.565l-9.265-20.73v20.73h-3.648v-27.746h3.931l10.265,22.938
			l10.263-22.938H461.847z"/>
		<path d="M486.905,1053.737v9.343h10.185v3.007h-10.185v9.624h11.39v3.004h-15.039v-27.988h15.039v3.011H486.905z"/>
		<path d="M522.971,1078.014c-1.456-0.652-2.601-1.56-3.428-2.727c-0.831-1.164-1.256-2.506-1.284-4.027h3.89
			c0.135,1.308,0.676,2.412,1.625,3.306c0.948,0.896,2.331,1.346,4.151,1.346c1.737,0,3.107-0.438,4.109-1.304
			c1-0.869,1.503-1.984,1.503-3.348c0-1.072-0.294-1.938-0.881-2.604c-0.59-0.673-1.325-1.181-2.205-1.528
			c-0.885-0.347-2.075-0.722-3.571-1.121c-1.845-0.483-3.323-0.964-4.43-1.444c-1.111-0.479-2.059-1.237-2.848-2.264
			c-0.79-1.03-1.183-2.411-1.183-4.153c0-1.524,0.387-2.873,1.162-4.048c0.776-1.174,1.865-2.085,3.268-2.727
			c1.404-0.645,3.014-0.964,4.833-0.964c2.618,0,4.765,0.655,6.435,1.967c1.67,1.311,2.615,3.045,2.828,5.211h-4.011
			c-0.133-1.068-0.694-2.012-1.683-2.828c-0.992-0.813-2.301-1.22-3.932-1.22c-1.521,0-2.765,0.393-3.727,1.181
			c-0.962,0.789-1.444,1.893-1.444,3.309c0,1.017,0.287,1.848,0.862,2.485c0.575,0.645,1.284,1.132,2.124,1.465
			c0.843,0.333,2.027,0.715,3.552,1.139c1.841,0.512,3.326,1.013,4.449,1.507c1.122,0.494,2.085,1.259,2.886,2.285
			c0.803,1.03,1.204,2.429,1.204,4.191c0,1.36-0.361,2.646-1.082,3.849c-0.724,1.202-1.794,2.18-3.21,2.93
			c-1.416,0.746-3.086,1.121-5.01,1.121C526.08,1078.998,524.429,1078.669,522.971,1078.014z"/>
	</g>
	<g>
		<path d="M145.347,1013.871h-31.773l-5.091,15.039H86.773l30.804-85.128h24.009l30.8,85.128h-21.95L145.347,1013.871z
			 M140.011,997.866l-10.551-31.164l-10.43,31.164H140.011z"/>
		<path d="M219.437,1011.327v17.583h-10.549c-7.519,0-13.381-1.84-17.583-5.517c-4.204-3.68-6.305-9.68-6.305-18.011v-26.915h-8.246
			v-17.226H185v-16.489h20.734v16.489h13.584v17.226h-13.584v27.161c0,2.021,0.487,3.477,1.458,4.363
			c0.971,0.89,2.585,1.335,4.849,1.335H219.437z"/>
		<path d="M251.692,939.174v89.736h-20.735v-89.736H251.692z"/>
		<path d="M399.167,968.217c4.729,5.134,7.095,12.188,7.095,21.161v39.532H385.65v-36.743c0-4.524-1.174-8.043-3.521-10.552
			c-2.345-2.503-5.496-3.758-9.456-3.758c-3.964,0-7.118,1.255-9.459,3.758c-2.345,2.509-3.515,6.027-3.515,10.552v36.743h-20.739
			v-67.668H359.7v8.976c2.099-2.989,4.929-5.352,8.484-7.094c3.559-1.738,7.558-2.607,12.003-2.607
			C388.114,960.517,394.441,963.086,399.167,968.217z"/>
		<path d="M458.407,1011.327v17.583h-10.551c-7.519,0-13.381-1.84-17.584-5.517c-4.202-3.68-6.305-9.68-6.305-18.011v-26.915h-8.245
			v-17.226h8.245v-16.489h20.739v16.489h13.579v17.226h-13.579v27.161c0,2.021,0.482,3.477,1.453,4.363
			c0.971,0.89,2.586,1.335,4.852,1.335H458.407z"/>
		<path d="M469.741,976.646c2.627-5.254,6.203-9.295,10.731-12.126c4.528-2.829,9.582-4.244,15.161-4.244
			c4.768,0,8.953,0.967,12.55,2.908c3.596,1.941,6.365,4.486,8.305,7.641v-9.582h20.739v67.668h-20.739v-9.578
			c-2.019,3.154-4.832,5.698-8.425,7.637c-3.6,1.941-7.782,2.912-12.552,2.912c-5.499,0-10.51-1.434-15.038-4.308
			c-4.528-2.866-8.104-6.949-10.731-12.245c-2.628-5.292-3.939-11.418-3.939-18.371S467.112,981.902,469.741,976.646z
			 M512.182,982.831c-2.867-2.989-6.364-4.486-10.488-4.486c-4.122,0-7.621,1.476-10.488,4.427
			c-2.872,2.951-4.305,7.013-4.305,12.186s1.433,9.273,4.305,12.309c2.867,3.031,6.366,4.549,10.488,4.549
			c4.124,0,7.621-1.497,10.488-4.489c2.872-2.99,4.306-7.072,4.306-12.245C516.488,989.903,515.054,985.824,512.182,982.831z"/>
	</g>
	<path d="M274.887,1031.461c-1.198,0.796-2.183,0.271-2.187-1.17l-0.244-70.416c-0.003-1.437,0.976-1.969,2.178-1.181l53.032,34.826
		c1.202,0.788,1.206,2.085,0.007,2.881L274.887,1031.461z"/>
</g>
<g>
	<g>
		<path fill="#1A171B" d="M488.15,1563.498c-1.486-0.367-3.01-0.627-4.574-0.754l-5.748,17.178h15.882L488.15,1563.498z"/>
		<polygon fill="#1A171B" points="296.905,1562.621 292.669,1562.621 286.88,1579.922 302.762,1579.922 		"/>
		<polygon fill="#1A171B" points="376.296,1562.621 365.586,1562.621 376.296,1578.912 		"/>
		<polygon fill="#1A171B" points="131.927,1564.752 124.897,1564.752 121.18,1579.922 137.062,1579.922 		"/>
		<path fill="#1A171B" d="M113.493,1686.26v43.553c0,16.127,13.195,29.32,29.322,29.32h338.369c16.127,0,29.322-13.193,29.322-29.32
			v-43.553H113.493z"/>
		<polygon fill="#1A171B" points="510.507,1684.229 510.507,1603.422 501.604,1603.422 497.749,1592.039 473.697,1592.039 
			469.841,1603.422 453.41,1603.422 468.171,1562.621 432.662,1562.621 432.662,1603.422 416.963,1603.422 416.963,1562.621 
			391.993,1562.621 391.993,1603.422 376.296,1603.422 350.04,1563.672 350.04,1603.422 334.343,1603.422 334.343,1562.621 
			312.512,1562.621 327.273,1603.422 310.656,1603.422 306.8,1592.039 282.748,1592.039 278.893,1603.422 262.461,1603.422 
			277.223,1562.621 238.594,1562.621 238.594,1591.305 259.157,1591.305 259.157,1603.422 222.896,1603.422 222.896,1562.621 
			197.927,1562.621 197.927,1603.422 182.228,1603.422 182.228,1562.621 146.811,1562.621 161.573,1603.422 144.955,1603.422 
			141.1,1592.039 117.048,1592.039 113.493,1602.531 113.493,1684.229 		"/>
	</g>
	<g>
		<polygon fill="#1A171B" points="139.316,1537.562 121.245,1539.525 115.299,1563.934 130.654,1562.264 132.062,1555.805 
			134.851,1561.809 150.365,1560.123 		"/>
		<polygon fill="#1A171B" points="304.047,1519.664 285.978,1521.627 280.032,1546.035 295.386,1544.367 296.796,1537.908 
			299.583,1543.912 315.096,1542.225 		"/>
		<polygon fill="#1A171B" points="199.997,1543.619 216.972,1541.775 215.613,1529.271 166.058,1534.658 167.416,1547.162 
			184.392,1545.318 185.584,1556.297 201.19,1554.6 		"/>
		<polygon fill="#1A171B" points="493.877,1499.039 475.808,1501.002 469.861,1525.412 485.216,1523.74 486.625,1517.279 
			489.414,1523.287 504.926,1521.602 		"/>
		
			<rect x="377.195" y="1510.933" transform="matrix(0.9942 -0.108 0.108 0.9942 -162.2048 50.4916)" fill="#1A171B" width="15.697" height="23.623"/>
		
			<rect x="224.692" y="1527.503" transform="matrix(0.9942 -0.108 0.108 0.9942 -164.8763 34.1155)" fill="#1A171B" width="15.698" height="23.623"/>
		<polygon fill="#1A171B" points="433.36,1518.266 450.335,1516.422 448.977,1503.918 399.421,1509.301 400.78,1521.805 
			417.755,1519.961 418.947,1530.941 434.554,1529.248 		"/>
		<polygon fill="#1A171B" points="349.863,1514.686 334.256,1516.383 336.808,1539.867 367.856,1536.492 		"/>
	</g>
	<g>
		<path fill="#FFFFFF" d="M351.151,1715.959v2.246h-9.196v7.133h7.466v2.244h-7.466v9.533h-2.763v-21.156H351.151z"/>
		<path fill="#FFFFFF" d="M368.788,1715.959v21.156h-2.761v-21.156H368.788z"/>
		<path fill="#FFFFFF" d="M387.792,1734.869h7.404v2.246h-10.167v-21.156h2.763V1734.869z"/>
		<path fill="#FFFFFF" d="M431.137,1716.107v21.008h-2.763v-15.662l-6.979,15.662h-1.944l-7.012-15.693v15.693h-2.763v-21.008h2.978
			l7.769,17.363l7.77-17.363H431.137z"/>
		<path fill="#FFFFFF" d="M450.109,1718.205v7.072h7.71v2.277h-7.71v7.283h8.622v2.277h-11.383v-21.188h11.383v2.277H450.109z"/>
		<path fill="#FFFFFF" d="M477.414,1736.584c-1.103-0.494-1.97-1.184-2.595-2.062c-0.629-0.881-0.954-1.896-0.974-3.051h2.945
			c0.102,0.992,0.51,1.824,1.229,2.502c0.719,0.68,1.764,1.02,3.143,1.02c1.314,0,2.352-0.33,3.111-0.986
			c0.758-0.66,1.139-1.5,1.139-2.535c0-0.811-0.222-1.469-0.668-1.973c-0.446-0.508-1.002-0.893-1.668-1.154
			c-0.671-0.264-1.573-0.545-2.704-0.85c-1.396-0.365-2.515-0.729-3.354-1.094c-0.842-0.363-1.562-0.936-2.156-1.713
			c-0.598-0.779-0.895-1.83-0.895-3.143c0-1.154,0.291-2.176,0.879-3.068c0.587-0.889,1.412-1.578,2.475-2.062
			c1.063-0.486,2.279-0.729,3.658-0.729c1.983,0,3.607,0.498,4.873,1.488c1.264,0.99,1.978,2.307,2.141,3.947h-3.039
			c-0.1-0.812-0.523-1.525-1.273-2.143s-1.741-0.924-2.976-0.924c-1.152,0-2.094,0.297-2.822,0.895
			c-0.728,0.596-1.093,1.43-1.093,2.504c0,0.768,0.216,1.396,0.652,1.881c0.437,0.488,0.973,0.855,1.608,1.111
			c0.642,0.252,1.534,0.539,2.688,0.861c1.396,0.385,2.517,0.764,3.369,1.139c0.848,0.375,1.577,0.953,2.185,1.73
			c0.606,0.781,0.912,1.838,0.912,3.176c0,1.029-0.273,2.002-0.821,2.912c-0.547,0.912-1.356,1.648-2.43,2.215
			c-1.071,0.566-2.335,0.852-3.792,0.852C479.767,1737.33,478.517,1737.08,477.414,1736.584z"/>
	</g>
</g>
<rect x="1192.49" y="1658.17" fill="#1A171B" width="2.56" height="30.44"/>
<text transform="matrix(1 0 0 1 1043.4365 1746.3086)" font-family="'Poppins-Regular'" font-size="33.0423" letter-spacing="12">atlanta</text>
<text transform="matrix(1 0 0 1 1043.4365 1779.7949)" font-family="'Poppins-Regular'" font-size="33.0423" letter-spacing="12">filmes</text>
<path fill="#1A171B" d="M1043.44,1467.05v236.431h11.33v-59.461h0.203v-5.554h27.27v5.554h0.138v43.181h9.48v-65.84l10.36-41.061
	l13,39.65v35.39h12.03v-21.04h35.4v55.021h3.51v-31.15h26.33v-26.189h16.28v25.479h6.37v29.74h6.37v-65.84h9.91v-34.69h10.62v35.4
	h19.47v64.42h7.216v-9.335h27.27v9.335h14.185v-219.44H1043.44z M1082.242,1627.926h-27.27v-28.15h27.27V1627.926z
	 M1082.242,1589.237h-27.27v-28.146h27.27V1589.237z M1082.242,1550.552h-27.27v-28.146h27.27V1550.552z M1082.242,1511.865h-27.27
	v-28.146h27.27V1511.865z M1295.996,1666.615h-27.27v-28.149h27.27V1666.615z M1295.996,1627.926h-27.27v-28.15h27.27V1627.926z
	 M1295.996,1589.237h-27.27v-28.146h27.27V1589.237z M1295.996,1550.552h-27.27v-28.146h27.27V1550.552z M1295.996,1511.865h-27.27
	v-28.146h27.27V1511.865z"/>
</svg>
